<?xml version="1.0" encoding="UTF-8" standalone="no"?>
<!DOCTYPE svg PUBLIC "-//W3C//DTD SVG 1.1//EN"
 "http://www.w3.org/Graphics/SVG/1.1/DTD/svg11.dtd">
<!-- Generated by graphviz version 9.0.0 (20230911.1827)
 -->
<!-- Pages: 1 -->
<svg width="573pt" height="180pt"
 viewBox="0.00 0.00 572.87 180.00" xmlns="http://www.w3.org/2000/svg" xmlns:xlink="http://www.w3.org/1999/xlink">
<g id="graph0" class="graph" transform="scale(1 1) rotate(0) translate(4 176)">
<polygon fill="white" stroke="none" points="-4,4 -4,-176 568.87,-176 568.87,4 -4,4"/>
<!-- T -->
<g id="node1" class="node">
<title>T</title>
<ellipse fill="none" stroke="black" cx="30.37" cy="-50" rx="27" ry="18"/>
<text text-anchor="middle" x="30.37" y="-44.95" font-family="Times,serif" font-size="14.00">T</text>
</g>
<!-- S -->
<g id="node2" class="node">
<title>S</title>
<ellipse fill="lightgrey" stroke="lightgrey" cx="343.09" cy="-18" rx="27" ry="18"/>
<text text-anchor="middle" x="343.09" y="-12.95" font-family="Times,serif" font-size="14.00">S</text>
</g>
<!-- T&#45;&gt;S -->
<g id="edge1" class="edge">
<title>T&#45;&gt;S</title>
<path fill="none" stroke="black" d="M57.75,-50.76C93.32,-51.45 158.55,-51.51 213.77,-45 245.53,-41.25 281.07,-33.49 306.69,-27.24"/>
<polygon fill="black" stroke="black" points="307.38,-30.68 316.24,-24.87 305.69,-23.89 307.38,-30.68"/>
</g>
<!-- Y -->
<g id="node3" class="node">
<title>Y</title>
<ellipse fill="none" stroke="black" cx="155.25" cy="-18" rx="27" ry="18"/>
<text text-anchor="middle" x="155.25" y="-12.95" font-family="Times,serif" font-size="14.00">Y</text>
</g>
<!-- T&#45;&gt;Y -->
<g id="edge2" class="edge">
<title>T&#45;&gt;Y</title>
<path fill="none" stroke="black" d="M55.94,-43.6C73.94,-38.91 98.64,-32.48 118.78,-27.24"/>
<polygon fill="black" stroke="black" points="119.46,-30.68 128.26,-24.77 117.7,-23.9 119.46,-30.68"/>
</g>
<!-- Y&#45;&gt;S -->
<g id="edge3" class="edge">
<title>Y&#45;&gt;S</title>
<path fill="none" stroke="black" d="M182.48,-18C214.35,-18 268.34,-18 304.59,-18"/>
<polygon fill="black" stroke="black" points="304.18,-21.5 314.18,-18 304.18,-14.5 304.18,-21.5"/>
</g>
<!-- RND -->
<g id="node4" class="node">
<title>RND</title>
<ellipse fill="none" stroke="black" cx="30.37" cy="-123" rx="30.37" ry="18"/>
<text text-anchor="middle" x="30.37" y="-117.95" font-family="Times,serif" font-size="14.00">RND</text>
</g>
<!-- New Feature -->
<g id="node5" class="node">
<title>New Feature</title>
<ellipse fill="none" stroke="black" cx="155.25" cy="-123" rx="58.52" ry="18"/>
<text text-anchor="middle" x="155.25" y="-117.95" font-family="Times,serif" font-size="14.00">New Feature</text>
</g>
<!-- RND&#45;&gt;New Feature -->
<g id="edge4" class="edge">
<title>RND&#45;&gt;New Feature</title>
<path fill="none" stroke="black" d="M61.11,-123C68.44,-123 76.59,-123 84.94,-123"/>
<polygon fill="black" stroke="black" points="84.88,-126.5 94.88,-123 84.88,-119.5 84.88,-126.5"/>
</g>
<!-- Customer Satisfaction -->
<g id="node6" class="node">
<title>Customer Satisfaction</title>
<ellipse fill="none" stroke="black" cx="343.09" cy="-146" rx="93.32" ry="18"/>
<text text-anchor="middle" x="343.09" y="-140.95" font-family="Times,serif" font-size="14.00">Customer Satisfaction</text>
</g>
<!-- New Feature&#45;&gt;Customer Satisfaction -->
<g id="edge5" class="edge">
<title>New Feature&#45;&gt;Customer Satisfaction</title>
<path fill="none" stroke="black" d="M210,-129.65C223.33,-131.3 237.97,-133.11 252.5,-134.91"/>
<polygon fill="black" stroke="black" points="251.71,-138.34 262.07,-136.1 252.57,-131.39 251.71,-138.34"/>
</g>
<!-- Response -->
<g id="node8" class="node">
<title>Response</title>
<ellipse fill="lightgrey" stroke="lightgrey" cx="518.64" cy="-100" rx="46.23" ry="18"/>
<text text-anchor="middle" x="518.64" y="-94.95" font-family="Times,serif" font-size="14.00">Response</text>
</g>
<!-- New Feature&#45;&gt;Response -->
<g id="edge8" class="edge">
<title>New Feature&#45;&gt;Response</title>
<path fill="none" stroke="black" d="M213.12,-119.38C280.95,-115.06 393.64,-107.89 461.26,-103.59"/>
<polygon fill="black" stroke="black" points="461.26,-107.1 471.02,-102.97 460.81,-100.11 461.26,-107.1"/>
</g>
<!-- NPS -->
<g id="node7" class="node">
<title>NPS</title>
<ellipse fill="none" stroke="black" cx="518.64" cy="-154" rx="27.81" ry="18"/>
<text text-anchor="middle" x="518.64" y="-148.95" font-family="Times,serif" font-size="14.00">NPS</text>
</g>
<!-- Customer Satisfaction&#45;&gt;NPS -->
<g id="edge6" class="edge">
<title>Customer Satisfaction&#45;&gt;NPS</title>
<path fill="none" stroke="black" d="M434.42,-150.16C450.35,-150.9 466.11,-151.62 479.57,-152.25"/>
<polygon fill="black" stroke="black" points="479.08,-155.73 489.23,-152.69 479.4,-148.73 479.08,-155.73"/>
</g>
<!-- Customer Satisfaction&#45;&gt;Response -->
<g id="edge7" class="edge">
<title>Customer Satisfaction&#45;&gt;Response</title>
<path fill="none" stroke="black" d="M399.48,-131.32C421.78,-125.41 447.28,-118.65 468.87,-112.93"/>
<polygon fill="black" stroke="black" points="469.53,-116.37 478.3,-110.43 467.74,-109.61 469.53,-116.37"/>
</g>
</g>
</svg>
