<?xml version="1.0" encoding="UTF-8" standalone="no"?>
<!DOCTYPE svg PUBLIC "-//W3C//DTD SVG 1.1//EN"
 "http://www.w3.org/Graphics/SVG/1.1/DTD/svg11.dtd">
<!-- Generated by graphviz version 9.0.0 (20230911.1827)
 -->
<!-- Pages: 1 -->
<svg width="498pt" height="98pt"
 viewBox="0.00 0.00 497.64 98.00" xmlns="http://www.w3.org/2000/svg" xmlns:xlink="http://www.w3.org/1999/xlink">
<g id="graph0" class="graph" transform="scale(1 1) rotate(0) translate(4 94)">
<polygon fill="white" stroke="none" points="-4,4 -4,-94 493.64,-94 493.64,4 -4,4"/>
<!-- T -->
<g id="node1" class="node">
<title>T</title>
<ellipse fill="none" stroke="black" cx="76.94" cy="-18" rx="27" ry="18"/>
<text text-anchor="middle" x="76.94" y="-12.95" font-family="Times,serif" font-size="14.00">T</text>
</g>
<!-- M -->
<g id="node2" class="node">
<title>M</title>
<ellipse fill="lightgrey" stroke="lightgrey" cx="257.61" cy="-18" rx="27" ry="18"/>
<text text-anchor="middle" x="257.61" y="-12.95" font-family="Times,serif" font-size="14.00">M</text>
</g>
<!-- T&#45;&gt;M -->
<g id="edge1" class="edge">
<title>T&#45;&gt;M</title>
<path fill="none" stroke="black" d="M104.31,-18C134.52,-18 184.3,-18 218.68,-18"/>
<polygon fill="black" stroke="black" points="218.63,-21.5 228.63,-18 218.63,-14.5 218.63,-21.5"/>
</g>
<!-- Y -->
<g id="node3" class="node">
<title>Y</title>
<ellipse fill="none" stroke="black" cx="425.49" cy="-18" rx="27" ry="18"/>
<text text-anchor="middle" x="425.49" y="-12.95" font-family="Times,serif" font-size="14.00">Y</text>
</g>
<!-- M&#45;&gt;Y -->
<g id="edge2" class="edge">
<title>M&#45;&gt;Y</title>
<path fill="none" stroke="black" d="M284.9,-18C312.36,-18 355.69,-18 386.79,-18"/>
<polygon fill="black" stroke="black" points="386.54,-21.5 396.54,-18 386.54,-14.5 386.54,-21.5"/>
</g>
<!-- causal knowledge -->
<g id="node4" class="node">
<title>causal knowledge</title>
<ellipse fill="none" stroke="black" cx="76.94" cy="-72" rx="76.94" ry="18"/>
<text text-anchor="middle" x="76.94" y="-66.95" font-family="Times,serif" font-size="14.00">causal knowledge</text>
</g>
<!-- solve problems -->
<g id="node5" class="node">
<title>solve problems</title>
<ellipse fill="lightgrey" stroke="lightgrey" cx="257.61" cy="-72" rx="67.73" ry="18"/>
<text text-anchor="middle" x="257.61" y="-66.95" font-family="Times,serif" font-size="14.00">solve problems</text>
</g>
<!-- causal knowledge&#45;&gt;solve problems -->
<g id="edge3" class="edge">
<title>causal knowledge&#45;&gt;solve problems</title>
<path fill="none" stroke="black" d="M154.23,-72C162.13,-72 170.18,-72 178.1,-72"/>
<polygon fill="black" stroke="black" points="178.09,-75.5 188.09,-72 178.09,-68.5 178.09,-75.5"/>
</g>
<!-- job promotion -->
<g id="node6" class="node">
<title>job promotion</title>
<ellipse fill="none" stroke="black" cx="425.49" cy="-72" rx="64.15" ry="18"/>
<text text-anchor="middle" x="425.49" y="-66.95" font-family="Times,serif" font-size="14.00">job promotion</text>
</g>
<!-- solve problems&#45;&gt;job promotion -->
<g id="edge4" class="edge">
<title>solve problems&#45;&gt;job promotion</title>
<path fill="none" stroke="black" d="M325.6,-72C333.55,-72 341.7,-72 349.74,-72"/>
<polygon fill="black" stroke="black" points="349.5,-75.5 359.5,-72 349.5,-68.5 349.5,-75.5"/>
</g>
</g>
</svg>
