<?xml version="1.0" encoding="UTF-8" standalone="no"?>
<!DOCTYPE svg PUBLIC "-//W3C//DTD SVG 1.1//EN"
 "http://www.w3.org/Graphics/SVG/1.1/DTD/svg11.dtd">
<!-- Generated by graphviz version 9.0.0 (20230911.1827)
 -->
<!-- Pages: 1 -->
<svg width="332pt" height="105pt"
 viewBox="0.00 0.00 332.00 105.00" xmlns="http://www.w3.org/2000/svg" xmlns:xlink="http://www.w3.org/1999/xlink">
<g id="graph0" class="graph" transform="scale(1 1) rotate(0) translate(4 101)">
<polygon fill="white" stroke="none" points="-4,4 -4,-101 328,-101 328,4 -4,4"/>
<!-- T -->
<g id="node1" class="node">
<title>T</title>
<ellipse fill="none" stroke="black" cx="27" cy="-33" rx="27" ry="18"/>
<text text-anchor="middle" x="27" y="-27.95" font-family="Times,serif" font-size="14.00">T</text>
</g>
<!-- M -->
<g id="node2" class="node">
<title>M</title>
<ellipse fill="lightgrey" stroke="lightgrey" cx="117" cy="-79" rx="27" ry="18"/>
<text text-anchor="middle" x="117" y="-73.95" font-family="Times,serif" font-size="14.00">M</text>
</g>
<!-- T&#45;&gt;M -->
<g id="edge1" class="edge">
<title>T&#45;&gt;M</title>
<path fill="none" stroke="black" d="M48.85,-43.9C59.63,-49.53 72.98,-56.51 84.94,-62.77"/>
<polygon fill="black" stroke="black" points="83.16,-65.79 93.65,-67.32 86.41,-59.58 83.16,-65.79"/>
</g>
<!-- Y -->
<g id="node3" class="node">
<title>Y</title>
<ellipse fill="none" stroke="black" cx="207" cy="-41" rx="27" ry="18"/>
<text text-anchor="middle" x="207" y="-35.95" font-family="Times,serif" font-size="14.00">Y</text>
</g>
<!-- T&#45;&gt;Y -->
<g id="edge3" class="edge">
<title>T&#45;&gt;Y</title>
<path fill="none" stroke="black" d="M54.26,-34.18C84.37,-35.53 133.96,-37.76 168.21,-39.3"/>
<polygon fill="black" stroke="black" points="167.97,-42.79 178.12,-39.75 168.28,-35.8 167.97,-42.79"/>
</g>
<!-- S -->
<g id="node4" class="node">
<title>S</title>
<ellipse fill="lightgrey" stroke="lightgrey" cx="297" cy="-18" rx="27" ry="18"/>
<text text-anchor="middle" x="297" y="-12.95" font-family="Times,serif" font-size="14.00">S</text>
</g>
<!-- T&#45;&gt;S -->
<g id="edge4" class="edge">
<title>T&#45;&gt;S</title>
<path fill="none" stroke="black" d="M53.73,-28.79C83.88,-24.09 135.41,-16.78 180,-14 203.95,-12.51 210.01,-13.23 234,-14 241.9,-14.25 250.35,-14.69 258.39,-15.18"/>
<polygon fill="black" stroke="black" points="258.05,-18.67 268.26,-15.83 258.51,-11.68 258.05,-18.67"/>
</g>
<!-- M&#45;&gt;Y -->
<g id="edge2" class="edge">
<title>M&#45;&gt;Y</title>
<path fill="none" stroke="black" d="M140.21,-69.41C150.21,-65.09 162.23,-59.9 173.24,-55.15"/>
<polygon fill="black" stroke="black" points="174.62,-58.36 182.41,-51.19 171.84,-51.94 174.62,-58.36"/>
</g>
<!-- Y&#45;&gt;S -->
<g id="edge5" class="edge">
<title>Y&#45;&gt;S</title>
<path fill="none" stroke="black" d="M232.51,-34.59C241.12,-32.34 250.97,-29.77 260.3,-27.33"/>
<polygon fill="black" stroke="black" points="261.06,-30.75 269.85,-24.83 259.29,-23.98 261.06,-30.75"/>
</g>
</g>
</svg>
