<?xml version="1.0" encoding="UTF-8" standalone="no"?>
<!DOCTYPE svg PUBLIC "-//W3C//DTD SVG 1.1//EN"
 "http://www.w3.org/Graphics/SVG/1.1/DTD/svg11.dtd">
<!-- Generated by graphviz version 9.0.0 (20230911.1827)
 -->
<!-- Pages: 1 -->
<svg width="332pt" height="188pt"
 viewBox="0.00 0.00 331.93 188.00" xmlns="http://www.w3.org/2000/svg" xmlns:xlink="http://www.w3.org/1999/xlink">
<g id="graph0" class="graph" transform="scale(1 1) rotate(0) translate(4 184)">
<polygon fill="white" stroke="none" points="-4,4 -4,-184 327.93,-184 327.93,4 -4,4"/>
<!-- Y -->
<g id="node1" class="node">
<title>Y</title>
<ellipse fill="none" stroke="black" cx="27" cy="-162" rx="27" ry="18"/>
<text text-anchor="middle" x="27" y="-156.95" font-family="Times,serif" font-size="14.00">Y</text>
</g>
<!-- X1 -->
<g id="node2" class="node">
<title>X1</title>
<ellipse fill="none" stroke="black" cx="78" cy="-90" rx="27" ry="18"/>
<text text-anchor="middle" x="78" y="-84.95" font-family="Times,serif" font-size="14.00">X1</text>
</g>
<!-- Y&#45;&gt;X1 -->
<g id="edge1" class="edge">
<title>Y&#45;&gt;X1</title>
<path fill="none" stroke="black" d="M38.32,-145.46C44.72,-136.67 52.88,-125.48 60.13,-115.53"/>
<polygon fill="black" stroke="black" points="62.76,-117.86 65.82,-107.72 57.1,-113.74 62.76,-117.86"/>
</g>
<!-- X2 -->
<g id="node4" class="node">
<title>X2</title>
<ellipse fill="lightgrey" stroke="lightgrey" cx="78" cy="-18" rx="27" ry="18"/>
<text text-anchor="middle" x="78" y="-12.95" font-family="Times,serif" font-size="14.00">X2</text>
</g>
<!-- X1&#45;&gt;X2 -->
<g id="edge3" class="edge">
<title>X1&#45;&gt;X2</title>
<path fill="none" stroke="black" d="M78,-71.7C78,-64.41 78,-55.73 78,-47.54"/>
<polygon fill="black" stroke="black" points="81.5,-47.62 78,-37.62 74.5,-47.62 81.5,-47.62"/>
</g>
<!-- T -->
<g id="node3" class="node">
<title>T</title>
<ellipse fill="none" stroke="black" cx="99" cy="-162" rx="27" ry="18"/>
<text text-anchor="middle" x="99" y="-156.95" font-family="Times,serif" font-size="14.00">T</text>
</g>
<!-- T&#45;&gt;X1 -->
<g id="edge2" class="edge">
<title>T&#45;&gt;X1</title>
<path fill="none" stroke="black" d="M93.92,-144.05C91.62,-136.4 88.85,-127.16 86.27,-118.56"/>
<polygon fill="black" stroke="black" points="89.7,-117.81 83.47,-109.24 82.99,-119.82 89.7,-117.81"/>
</g>
<!-- statistics -->
<g id="node5" class="node">
<title>statistics</title>
<ellipse fill="none" stroke="black" cx="197" cy="-162" rx="42.65" ry="18"/>
<text text-anchor="middle" x="197" y="-156.95" font-family="Times,serif" font-size="14.00">statistics</text>
</g>
<!-- job promotion -->
<g id="node6" class="node">
<title>job promotion</title>
<ellipse fill="none" stroke="black" cx="217" cy="-90" rx="64.15" ry="18"/>
<text text-anchor="middle" x="217" y="-84.95" font-family="Times,serif" font-size="14.00">job promotion</text>
</g>
<!-- statistics&#45;&gt;job promotion -->
<g id="edge4" class="edge">
<title>statistics&#45;&gt;job promotion</title>
<path fill="none" stroke="black" d="M201.94,-143.7C204.08,-136.24 206.62,-127.32 209.01,-118.97"/>
<polygon fill="black" stroke="black" points="212.32,-120.14 211.7,-109.56 205.58,-118.21 212.32,-120.14"/>
</g>
<!-- high salary -->
<g id="node8" class="node">
<title>high salary</title>
<ellipse fill="lightgrey" stroke="lightgrey" cx="217" cy="-18" rx="51.86" ry="18"/>
<text text-anchor="middle" x="217" y="-12.95" font-family="Times,serif" font-size="14.00">high salary</text>
</g>
<!-- job promotion&#45;&gt;high salary -->
<g id="edge6" class="edge">
<title>job promotion&#45;&gt;high salary</title>
<path fill="none" stroke="black" d="M217,-71.7C217,-64.41 217,-55.73 217,-47.54"/>
<polygon fill="black" stroke="black" points="220.5,-47.62 217,-37.62 213.5,-47.62 220.5,-47.62"/>
</g>
<!-- flatter -->
<g id="node7" class="node">
<title>flatter</title>
<ellipse fill="none" stroke="black" cx="291" cy="-162" rx="32.93" ry="18"/>
<text text-anchor="middle" x="291" y="-156.95" font-family="Times,serif" font-size="14.00">flatter</text>
</g>
<!-- flatter&#45;&gt;job promotion -->
<g id="edge5" class="edge">
<title>flatter&#45;&gt;job promotion</title>
<path fill="none" stroke="black" d="M274.94,-145.81C265.55,-136.93 253.48,-125.5 242.78,-115.39"/>
<polygon fill="black" stroke="black" points="245.35,-113 235.68,-108.67 240.54,-118.08 245.35,-113"/>
</g>
</g>
</svg>
