<?xml version="1.0" encoding="UTF-8" standalone="no"?>
<!DOCTYPE svg PUBLIC "-//W3C//DTD SVG 1.1//EN"
 "http://www.w3.org/Graphics/SVG/1.1/DTD/svg11.dtd">
<!-- Generated by graphviz version 9.0.0 (20230911.1827)
 -->
<!-- Pages: 1 -->
<svg width="462pt" height="116pt"
 viewBox="0.00 0.00 462.41 116.00" xmlns="http://www.w3.org/2000/svg" xmlns:xlink="http://www.w3.org/1999/xlink">
<g id="graph0" class="graph" transform="scale(1 1) rotate(0) translate(4 112)">
<polygon fill="white" stroke="none" points="-4,4 -4,-112 458.41,-112 458.41,4 -4,4"/>
<!-- X -->
<g id="node1" class="node">
<title>X</title>
<ellipse fill="none" stroke="black" cx="63" cy="-90" rx="27" ry="18"/>
<text text-anchor="middle" x="63" y="-84.95" font-family="Times,serif" font-size="14.00">X</text>
</g>
<!-- Y -->
<g id="node2" class="node">
<title>Y</title>
<ellipse fill="none" stroke="black" cx="27" cy="-18" rx="27" ry="18"/>
<text text-anchor="middle" x="27" y="-12.95" font-family="Times,serif" font-size="14.00">Y</text>
</g>
<!-- X&#45;&gt;Y -->
<g id="edge1" class="edge">
<title>X&#45;&gt;Y</title>
<path fill="none" stroke="black" d="M54.65,-72.76C50.42,-64.55 45.19,-54.37 40.42,-45.09"/>
<polygon fill="black" stroke="black" points="43.68,-43.79 36,-36.49 37.46,-46.99 43.68,-43.79"/>
</g>
<!-- T -->
<g id="node3" class="node">
<title>T</title>
<ellipse fill="none" stroke="black" cx="99" cy="-18" rx="27" ry="18"/>
<text text-anchor="middle" x="99" y="-12.95" font-family="Times,serif" font-size="14.00">T</text>
</g>
<!-- X&#45;&gt;T -->
<g id="edge2" class="edge">
<title>X&#45;&gt;T</title>
<path fill="none" stroke="black" d="M71.35,-72.76C75.58,-64.55 80.81,-54.37 85.58,-45.09"/>
<polygon fill="black" stroke="black" points="88.54,-46.99 90,-36.49 82.32,-43.79 88.54,-46.99"/>
</g>
<!-- statistics -->
<g id="node4" class="node">
<title>statistics</title>
<ellipse fill="none" stroke="black" cx="297" cy="-90" rx="42.65" ry="18"/>
<text text-anchor="middle" x="297" y="-84.95" font-family="Times,serif" font-size="14.00">statistics</text>
</g>
<!-- causal inference -->
<g id="node5" class="node">
<title>causal inference</title>
<ellipse fill="none" stroke="black" cx="215" cy="-18" rx="70.8" ry="18"/>
<text text-anchor="middle" x="215" y="-12.95" font-family="Times,serif" font-size="14.00">causal inference</text>
</g>
<!-- statistics&#45;&gt;causal inference -->
<g id="edge3" class="edge">
<title>statistics&#45;&gt;causal inference</title>
<path fill="none" stroke="black" d="M278.8,-73.46C268.35,-64.54 255,-53.14 243.21,-43.08"/>
<polygon fill="black" stroke="black" points="245.61,-40.53 235.73,-36.7 241.06,-45.85 245.61,-40.53"/>
</g>
<!-- machine learning -->
<g id="node6" class="node">
<title>machine learning</title>
<ellipse fill="none" stroke="black" cx="379" cy="-18" rx="75.41" ry="18"/>
<text text-anchor="middle" x="379" y="-12.95" font-family="Times,serif" font-size="14.00">machine learning</text>
</g>
<!-- statistics&#45;&gt;machine learning -->
<g id="edge4" class="edge">
<title>statistics&#45;&gt;machine learning</title>
<path fill="none" stroke="black" d="M315.2,-73.46C325.65,-64.54 339,-53.14 350.79,-43.08"/>
<polygon fill="black" stroke="black" points="352.94,-45.85 358.27,-36.7 348.39,-40.53 352.94,-45.85"/>
</g>
</g>
</svg>
