<?xml version="1.0" encoding="UTF-8" standalone="no"?>
<!DOCTYPE svg PUBLIC "-//W3C//DTD SVG 1.1//EN"
 "http://www.w3.org/Graphics/SVG/1.1/DTD/svg11.dtd">
<!-- Generated by graphviz version 9.0.0 (20230911.1827)
 -->
<!-- Pages: 1 -->
<svg width="332pt" height="116pt"
 viewBox="0.00 0.00 331.93 116.00" xmlns="http://www.w3.org/2000/svg" xmlns:xlink="http://www.w3.org/1999/xlink">
<g id="graph0" class="graph" transform="scale(1 1) rotate(0) translate(4 112)">
<polygon fill="white" stroke="none" points="-4,4 -4,-112 327.93,-112 327.93,4 -4,4"/>
<!-- Y -->
<g id="node1" class="node">
<title>Y</title>
<ellipse fill="none" stroke="black" cx="27" cy="-90" rx="27" ry="18"/>
<text text-anchor="middle" x="27" y="-84.95" font-family="Times,serif" font-size="14.00">Y</text>
</g>
<!-- X -->
<g id="node2" class="node">
<title>X</title>
<ellipse fill="none" stroke="black" cx="78" cy="-18" rx="27" ry="18"/>
<text text-anchor="middle" x="78" y="-12.95" font-family="Times,serif" font-size="14.00">X</text>
</g>
<!-- Y&#45;&gt;X -->
<g id="edge1" class="edge">
<title>Y&#45;&gt;X</title>
<path fill="none" stroke="black" d="M38.32,-73.46C44.72,-64.67 52.88,-53.48 60.13,-43.53"/>
<polygon fill="black" stroke="black" points="62.76,-45.86 65.82,-35.72 57.1,-41.74 62.76,-45.86"/>
</g>
<!-- T -->
<g id="node3" class="node">
<title>T</title>
<ellipse fill="none" stroke="black" cx="99" cy="-90" rx="27" ry="18"/>
<text text-anchor="middle" x="99" y="-84.95" font-family="Times,serif" font-size="14.00">T</text>
</g>
<!-- T&#45;&gt;X -->
<g id="edge2" class="edge">
<title>T&#45;&gt;X</title>
<path fill="none" stroke="black" d="M93.92,-72.05C91.62,-64.4 88.85,-55.16 86.27,-46.56"/>
<polygon fill="black" stroke="black" points="89.7,-45.81 83.47,-37.24 82.99,-47.82 89.7,-45.81"/>
</g>
<!-- statistics -->
<g id="node4" class="node">
<title>statistics</title>
<ellipse fill="none" stroke="black" cx="197" cy="-90" rx="42.65" ry="18"/>
<text text-anchor="middle" x="197" y="-84.95" font-family="Times,serif" font-size="14.00">statistics</text>
</g>
<!-- job promotion -->
<g id="node5" class="node">
<title>job promotion</title>
<ellipse fill="none" stroke="black" cx="217" cy="-18" rx="64.15" ry="18"/>
<text text-anchor="middle" x="217" y="-12.95" font-family="Times,serif" font-size="14.00">job promotion</text>
</g>
<!-- statistics&#45;&gt;job promotion -->
<g id="edge3" class="edge">
<title>statistics&#45;&gt;job promotion</title>
<path fill="none" stroke="black" d="M201.94,-71.7C204.08,-64.24 206.62,-55.32 209.01,-46.97"/>
<polygon fill="black" stroke="black" points="212.32,-48.14 211.7,-37.56 205.58,-46.21 212.32,-48.14"/>
</g>
<!-- flatter -->
<g id="node6" class="node">
<title>flatter</title>
<ellipse fill="none" stroke="black" cx="291" cy="-90" rx="32.93" ry="18"/>
<text text-anchor="middle" x="291" y="-84.95" font-family="Times,serif" font-size="14.00">flatter</text>
</g>
<!-- flatter&#45;&gt;job promotion -->
<g id="edge4" class="edge">
<title>flatter&#45;&gt;job promotion</title>
<path fill="none" stroke="black" d="M274.94,-73.81C265.55,-64.93 253.48,-53.5 242.78,-43.39"/>
<polygon fill="black" stroke="black" points="245.35,-41 235.68,-36.67 240.54,-46.08 245.35,-41"/>
</g>
</g>
</svg>
