<?xml version="1.0" encoding="UTF-8" standalone="no"?>
<!DOCTYPE svg PUBLIC "-//W3C//DTD SVG 1.1//EN"
 "http://www.w3.org/Graphics/SVG/1.1/DTD/svg11.dtd">
<!-- Generated by graphviz version 9.0.0 (20230911.1827)
 -->
<!-- Pages: 1 -->
<svg width="332pt" height="67pt"
 viewBox="0.00 0.00 332.00 67.00" xmlns="http://www.w3.org/2000/svg" xmlns:xlink="http://www.w3.org/1999/xlink">
<g id="graph0" class="graph" transform="scale(1 1) rotate(0) translate(4 63)">
<polygon fill="white" stroke="none" points="-4,4 -4,-63 328,-63 328,4 -4,4"/>
<!-- T -->
<g id="node1" class="node">
<title>T</title>
<ellipse fill="none" stroke="black" cx="207" cy="-18" rx="27" ry="18"/>
<text text-anchor="middle" x="207" y="-12.95" font-family="Times,serif" font-size="14.00">T</text>
</g>
<!-- Y -->
<g id="node2" class="node">
<title>Y</title>
<ellipse fill="none" stroke="black" cx="297" cy="-41" rx="27" ry="18"/>
<text text-anchor="middle" x="297" y="-35.95" font-family="Times,serif" font-size="14.00">Y</text>
</g>
<!-- T&#45;&gt;Y -->
<g id="edge1" class="edge">
<title>T&#45;&gt;Y</title>
<path fill="none" stroke="black" d="M232.51,-24.41C241.12,-26.66 250.97,-29.23 260.3,-31.67"/>
<polygon fill="black" stroke="black" points="259.29,-35.02 269.85,-34.17 261.06,-28.25 259.29,-35.02"/>
</g>
<!-- X -->
<g id="node3" class="node">
<title>X</title>
<ellipse fill="none" stroke="black" cx="27" cy="-41" rx="27" ry="18"/>
<text text-anchor="middle" x="27" y="-35.95" font-family="Times,serif" font-size="14.00">X</text>
</g>
<!-- X&#45;&gt;Y -->
<g id="edge2" class="edge">
<title>X&#45;&gt;Y</title>
<path fill="none" stroke="black" d="M54.23,-43.07C65.26,-43.84 78.25,-44.62 90,-45 153.97,-47.06 170.03,-47.06 234,-45 241.9,-44.75 250.35,-44.31 258.39,-43.82"/>
<polygon fill="black" stroke="black" points="258.51,-47.32 268.26,-43.17 258.05,-40.33 258.51,-47.32"/>
</g>
<!-- e(x) -->
<g id="node4" class="node">
<title>e(x)</title>
<ellipse fill="none" stroke="black" cx="117" cy="-18" rx="27" ry="18"/>
<text text-anchor="middle" x="117" y="-12.95" font-family="Times,serif" font-size="14.00">e(x)</text>
</g>
<!-- X&#45;&gt;e(x) -->
<g id="edge3" class="edge">
<title>X&#45;&gt;e(x)</title>
<path fill="none" stroke="black" d="M52.51,-34.59C61.12,-32.34 70.97,-29.77 80.3,-27.33"/>
<polygon fill="black" stroke="black" points="81.06,-30.75 89.85,-24.83 79.29,-23.98 81.06,-30.75"/>
</g>
<!-- e(x)&#45;&gt;T -->
<g id="edge4" class="edge">
<title>e(x)&#45;&gt;T</title>
<path fill="none" stroke="black" d="M144.4,-18C151.89,-18 160.18,-18 168.2,-18"/>
<polygon fill="black" stroke="black" points="168.1,-21.5 178.1,-18 168.1,-14.5 168.1,-21.5"/>
</g>
</g>
</svg>
