<?xml version="1.0" encoding="UTF-8" standalone="no"?>
<!DOCTYPE svg PUBLIC "-//W3C//DTD SVG 1.1//EN"
 "http://www.w3.org/Graphics/SVG/1.1/DTD/svg11.dtd">
<!-- Generated by graphviz version 9.0.0 (20230911.1827)
 -->
<!-- Pages: 1 -->
<svg width="576pt" height="188pt"
 viewBox="0.00 0.00 575.52 188.00" xmlns="http://www.w3.org/2000/svg" xmlns:xlink="http://www.w3.org/1999/xlink">
<g id="graph0" class="graph" transform="scale(1 1) rotate(0) translate(4 184)">
<polygon fill="white" stroke="none" points="-4,4 -4,-184 571.52,-184 571.52,4 -4,4"/>
<!-- U -->
<g id="node1" class="node">
<title>U</title>
<ellipse fill="none" stroke="black" cx="54" cy="-162" rx="27" ry="18"/>
<text text-anchor="middle" x="54" y="-156.95" font-family="Times,serif" font-size="14.00">U</text>
</g>
<!-- X -->
<g id="node2" class="node">
<title>X</title>
<ellipse fill="none" stroke="black" cx="27" cy="-90" rx="27" ry="18"/>
<text text-anchor="middle" x="27" y="-84.95" font-family="Times,serif" font-size="14.00">X</text>
</g>
<!-- U&#45;&gt;X -->
<g id="edge1" class="edge">
<title>U&#45;&gt;X</title>
<path fill="none" stroke="black" d="M47.46,-144.05C44.48,-136.32 40.87,-126.96 37.52,-118.27"/>
<polygon fill="black" stroke="black" points="40.88,-117.27 34.02,-109.2 34.35,-119.79 40.88,-117.27"/>
</g>
<!-- Y -->
<g id="node4" class="node">
<title>Y</title>
<ellipse fill="none" stroke="black" cx="99" cy="-90" rx="27" ry="18"/>
<text text-anchor="middle" x="99" y="-84.95" font-family="Times,serif" font-size="14.00">Y</text>
</g>
<!-- U&#45;&gt;Y -->
<g id="edge3" class="edge">
<title>U&#45;&gt;Y</title>
<path fill="none" stroke="black" d="M64.21,-145.12C69.68,-136.61 76.54,-125.94 82.72,-116.32"/>
<polygon fill="black" stroke="black" points="85.55,-118.4 88.01,-108.09 79.66,-114.61 85.55,-118.4"/>
</g>
<!-- S -->
<g id="node3" class="node">
<title>S</title>
<ellipse fill="lightgrey" stroke="lightgrey" cx="115" cy="-18" rx="27" ry="18"/>
<text text-anchor="middle" x="115" y="-12.95" font-family="Times,serif" font-size="14.00">S</text>
</g>
<!-- X&#45;&gt;S -->
<g id="edge2" class="edge">
<title>X&#45;&gt;S</title>
<path fill="none" stroke="black" d="M43.97,-75.5C56.87,-65.24 74.84,-50.94 89.48,-39.3"/>
<polygon fill="black" stroke="black" points="91.25,-42.36 96.9,-33.4 86.9,-36.88 91.25,-42.36"/>
</g>
<!-- T -->
<g id="node5" class="node">
<title>T</title>
<ellipse fill="none" stroke="black" cx="140" cy="-162" rx="27" ry="18"/>
<text text-anchor="middle" x="140" y="-156.95" font-family="Times,serif" font-size="14.00">T</text>
</g>
<!-- T&#45;&gt;S -->
<g id="edge5" class="edge">
<title>T&#45;&gt;S</title>
<path fill="none" stroke="black" d="M140.57,-143.73C140.81,-125.65 140.19,-96.53 135,-72 133.15,-63.27 130.1,-54.07 126.93,-45.83"/>
<polygon fill="black" stroke="black" points="130.23,-44.65 123.21,-36.72 123.75,-47.3 130.23,-44.65"/>
</g>
<!-- T&#45;&gt;Y -->
<g id="edge4" class="edge">
<title>T&#45;&gt;Y</title>
<path fill="none" stroke="black" d="M130.49,-144.76C125.63,-136.46 119.59,-126.15 114.11,-116.79"/>
<polygon fill="black" stroke="black" points="117.3,-115.31 109.22,-108.45 111.26,-118.85 117.3,-115.31"/>
</g>
<!-- New Feature -->
<g id="node6" class="node">
<title>New Feature</title>
<ellipse fill="none" stroke="black" cx="278" cy="-162" rx="58.52" ry="18"/>
<text text-anchor="middle" x="278" y="-156.95" font-family="Times,serif" font-size="14.00">New Feature</text>
</g>
<!-- Customer Satisfaction -->
<g id="node7" class="node">
<title>Customer Satisfaction</title>
<ellipse fill="none" stroke="black" cx="339" cy="-90" rx="93.32" ry="18"/>
<text text-anchor="middle" x="339" y="-84.95" font-family="Times,serif" font-size="14.00">Customer Satisfaction</text>
</g>
<!-- New Feature&#45;&gt;Customer Satisfaction -->
<g id="edge6" class="edge">
<title>New Feature&#45;&gt;Customer Satisfaction</title>
<path fill="none" stroke="black" d="M292.46,-144.41C299.72,-136.08 308.68,-125.8 316.79,-116.49"/>
<polygon fill="black" stroke="black" points="319.3,-118.94 323.23,-109.1 314.02,-114.34 319.3,-118.94"/>
</g>
<!-- Response -->
<g id="node10" class="node">
<title>Response</title>
<ellipse fill="lightgrey" stroke="lightgrey" cx="256" cy="-18" rx="46.23" ry="18"/>
<text text-anchor="middle" x="256" y="-12.95" font-family="Times,serif" font-size="14.00">Response</text>
</g>
<!-- New Feature&#45;&gt;Response -->
<g id="edge10" class="edge">
<title>New Feature&#45;&gt;Response</title>
<path fill="none" stroke="black" d="M260.69,-144.61C251.75,-134.93 241.74,-121.87 237,-108 230.14,-87.91 235.71,-64.4 242.56,-46.58"/>
<polygon fill="black" stroke="black" points="245.75,-48.02 246.41,-37.45 239.3,-45.3 245.75,-48.02"/>
</g>
<!-- Unknown Stuff -->
<g id="node8" class="node">
<title>Unknown Stuff</title>
<ellipse fill="none" stroke="black" cx="453" cy="-162" rx="68.24" ry="18"/>
<text text-anchor="middle" x="453" y="-156.95" font-family="Times,serif" font-size="14.00">Unknown Stuff</text>
</g>
<!-- Unknown Stuff&#45;&gt;Customer Satisfaction -->
<g id="edge7" class="edge">
<title>Unknown Stuff&#45;&gt;Customer Satisfaction</title>
<path fill="none" stroke="black" d="M426.85,-144.94C411.57,-135.56 392.06,-123.58 375.31,-113.3"/>
<polygon fill="black" stroke="black" points="377.47,-110.51 367.11,-108.26 373.8,-116.48 377.47,-110.51"/>
</g>
<!-- Time in App -->
<g id="node9" class="node">
<title>Time in App</title>
<ellipse fill="none" stroke="black" cx="509" cy="-90" rx="58.52" ry="18"/>
<text text-anchor="middle" x="509" y="-84.95" font-family="Times,serif" font-size="14.00">Time in App</text>
</g>
<!-- Unknown Stuff&#45;&gt;Time in App -->
<g id="edge8" class="edge">
<title>Unknown Stuff&#45;&gt;Time in App</title>
<path fill="none" stroke="black" d="M466.56,-144.05C473.16,-135.8 481.24,-125.7 488.57,-116.54"/>
<polygon fill="black" stroke="black" points="491.11,-118.97 494.62,-108.97 485.64,-114.59 491.11,-118.97"/>
</g>
<!-- Time in App&#45;&gt;Response -->
<g id="edge9" class="edge">
<title>Time in App&#45;&gt;Response</title>
<path fill="none" stroke="black" d="M466.65,-77.28C421.69,-64.84 350.76,-45.22 303.82,-32.23"/>
<polygon fill="black" stroke="black" points="304.75,-28.86 294.18,-29.56 302.89,-35.6 304.75,-28.86"/>
</g>
</g>
</svg>
