<?xml version="1.0" encoding="UTF-8" standalone="no"?>
<!DOCTYPE svg PUBLIC "-//W3C//DTD SVG 1.1//EN"
 "http://www.w3.org/Graphics/SVG/1.1/DTD/svg11.dtd">
<!-- Generated by graphviz version 9.0.0 (20230911.1827)
 -->
<!-- Pages: 1 -->
<svg width="304pt" height="166pt"
 viewBox="0.00 0.00 304.17 166.00" xmlns="http://www.w3.org/2000/svg" xmlns:xlink="http://www.w3.org/1999/xlink">
<g id="graph0" class="graph" transform="scale(1 1) rotate(0) translate(4 162)">
<polygon fill="white" stroke="none" points="-4,4 -4,-162 300.17,-162 300.17,4 -4,4"/>
<!-- T -->
<g id="node1" class="node">
<title>T</title>
<ellipse fill="none" stroke="black" cx="36" cy="-34" rx="27" ry="18"/>
<text text-anchor="middle" x="36" y="-28.95" font-family="Times,serif" font-size="14.00">T</text>
</g>
<!-- M -->
<g id="node2" class="node">
<title>M</title>
<ellipse fill="lightgrey" stroke="lightgrey" cx="151.16" cy="-41" rx="27" ry="18"/>
<text text-anchor="middle" x="151.16" y="-35.95" font-family="Times,serif" font-size="14.00">M</text>
</g>
<!-- T&#45;&gt;M -->
<g id="edge1" class="edge">
<title>T&#45;&gt;M</title>
<path fill="none" stroke="black" d="M63.24,-35.62C77.95,-36.53 96.55,-37.68 112.76,-38.69"/>
<polygon fill="black" stroke="black" points="112.35,-42.17 122.54,-39.29 112.78,-35.18 112.35,-42.17"/>
</g>
<!-- Y -->
<g id="node3" class="node">
<title>Y</title>
<ellipse fill="none" stroke="black" cx="263.25" cy="-18" rx="27" ry="18"/>
<text text-anchor="middle" x="263.25" y="-12.95" font-family="Times,serif" font-size="14.00">Y</text>
</g>
<!-- T&#45;&gt;Y -->
<g id="edge2" class="edge">
<title>T&#45;&gt;Y</title>
<path fill="none" stroke="black" d="M60.32,-25.68C74.01,-21.24 91.76,-16.24 107.99,-14 147.64,-8.52 193.55,-10.8 224.91,-13.65"/>
<polygon fill="black" stroke="black" points="224.37,-17.11 234.67,-14.6 225.06,-10.15 224.37,-17.11"/>
</g>
<!-- M&#45;&gt;Y -->
<g id="edge3" class="edge">
<title>M&#45;&gt;Y</title>
<path fill="none" stroke="black" d="M177.41,-35.72C191.82,-32.71 210.12,-28.89 226.03,-25.57"/>
<polygon fill="black" stroke="black" points="226.55,-29.03 235.63,-23.56 225.12,-22.18 226.55,-29.03"/>
</g>
<!-- gender -->
<g id="node4" class="node">
<title>gender</title>
<ellipse fill="none" stroke="black" cx="36" cy="-107" rx="36" ry="18"/>
<text text-anchor="middle" x="36" y="-101.95" font-family="Times,serif" font-size="14.00">gender</text>
</g>
<!-- seniority -->
<g id="node5" class="node">
<title>seniority</title>
<ellipse fill="lightgrey" stroke="lightgrey" cx="151.16" cy="-140" rx="43.16" ry="18"/>
<text text-anchor="middle" x="151.16" y="-134.95" font-family="Times,serif" font-size="14.00">seniority</text>
</g>
<!-- gender&#45;&gt;seniority -->
<g id="edge4" class="edge">
<title>gender&#45;&gt;seniority</title>
<path fill="none" stroke="black" d="M67.62,-115.93C78.85,-119.2 91.81,-122.99 104.09,-126.57"/>
<polygon fill="black" stroke="black" points="103.08,-129.92 113.66,-129.36 105.03,-123.2 103.08,-129.92"/>
</g>
<!-- salary -->
<g id="node6" class="node">
<title>salary</title>
<ellipse fill="none" stroke="black" cx="263.25" cy="-117" rx="32.93" ry="18"/>
<text text-anchor="middle" x="263.25" y="-111.95" font-family="Times,serif" font-size="14.00">salary</text>
</g>
<!-- gender&#45;&gt;salary -->
<g id="edge5" class="edge">
<title>gender&#45;&gt;salary</title>
<path fill="none" stroke="black" d="M72.31,-108.14C104.2,-109.21 152.41,-110.97 194.32,-113 202.26,-113.39 210.72,-113.84 218.87,-114.31"/>
<polygon fill="black" stroke="black" points="218.42,-117.79 228.61,-114.88 218.83,-110.8 218.42,-117.79"/>
</g>
<!-- seniority&#45;&gt;salary -->
<g id="edge6" class="edge">
<title>seniority&#45;&gt;salary</title>
<path fill="none" stroke="black" d="M190.35,-132.02C200.28,-129.95 211.01,-127.7 221.09,-125.6"/>
<polygon fill="black" stroke="black" points="221.54,-129.08 230.62,-123.61 220.11,-122.23 221.54,-129.08"/>
</g>
</g>
</svg>
